<svg width="160" height="21" viewBox="0 0 160 21" fill="none" xmlns="http://www.w3.org/2000/svg">
<path d="M6.78125 16.3754C6.90625 16.3754 6.96875 16.4496 6.96875 16.598L6.81641 18.8011C6.80078 18.9574 6.70703 19.0355 6.53516 19.0355L1.09766 19.1176C0.964844 19.1176 0.894531 19.0238 0.886719 18.8363L0.910156 16.7621C0.910156 16.6449 0.972656 16.5707 1.09766 16.5394L2.35156 16.5746V3.90662L0.792969 3.91833C0.707031 3.91833 0.652344 3.8988 0.628906 3.85974C0.605469 3.82068 0.589844 3.75427 0.582031 3.66052L0.476562 1.59802C0.484375 1.50427 0.507812 1.44568 0.546875 1.42224C0.59375 1.39099 0.664062 1.36755 0.757812 1.35193L6.60547 1.44568C6.74609 1.4613 6.81641 1.55115 6.81641 1.71521L6.76953 3.77771C6.76953 3.94958 6.67969 4.03552 6.5 4.03552L4.96484 3.95349L4.95312 9.13318L11.3047 9.05115V3.69568L9.69922 3.6488C9.61328 3.6488 9.55859 3.62927 9.53516 3.59021C9.51172 3.55115 9.49609 3.48474 9.48828 3.39099L9.55859 1.44568C9.57422 1.28162 9.66797 1.19958 9.83984 1.19958L15.3125 1.17615C15.3984 1.18396 15.4531 1.2074 15.4766 1.24646C15.5 1.27771 15.5156 1.34412 15.5234 1.44568L15.6758 3.54333C15.6758 3.71521 15.5859 3.80115 15.4062 3.80115L13.918 3.76599L13.8828 16.7855L15.6875 16.7269C15.8125 16.7269 15.875 16.8011 15.875 16.9496L15.7227 19.0355C15.707 19.1918 15.6133 19.2699 15.4414 19.2699L9.88672 19.1176C9.75391 19.1176 9.68359 19.0238 9.67578 18.8363L9.69922 16.8793C9.69922 16.7621 9.76172 16.6879 9.88672 16.6566L11.3047 16.7621V11.4183L4.94141 11.4652L4.92969 16.5043L6.78125 16.3754ZM18.4648 12.6019C18.4648 11.266 18.5742 10.1566 18.793 9.2738C19.0195 8.38318 19.3516 7.67224 19.7891 7.14099C20.6016 6.18005 21.9258 5.69958 23.7617 5.69958C25.043 5.69958 25.9766 5.82849 26.5625 6.0863C27.1562 6.34412 27.6211 6.63708 27.957 6.96521C28.3008 7.29333 28.5938 7.71521 28.8359 8.23083C29.3203 9.28552 29.5625 10.6136 29.5625 12.2152C29.5625 13.809 29.4492 15.0394 29.2227 15.9066C29.0039 16.7738 28.6719 17.4691 28.2266 17.9926C27.3984 18.9457 26.0586 19.4222 24.207 19.4222C22.2695 19.4222 20.8594 18.9535 19.9766 18.016C18.9688 16.9535 18.4648 15.1488 18.4648 12.6019ZM26.4453 16.2465C26.6797 15.934 26.8555 15.4965 26.9727 14.934C27.0898 14.3715 27.1484 13.684 27.1484 12.8715C27.1484 12.059 27.1055 11.4027 27.0195 10.9027C26.9336 10.4027 26.8125 9.98865 26.6562 9.66052C26.5078 9.32458 26.3281 9.06287 26.1172 8.87537C25.9062 8.68005 25.6758 8.53552 25.4258 8.44177C25.0508 8.30115 24.5547 8.23083 23.9375 8.23083C23.3203 8.23083 22.8281 8.27771 22.4609 8.37146C22.0938 8.46521 21.7891 8.66443 21.5469 8.96912C21.0859 9.56287 20.8555 10.7582 20.8555 12.5551C20.8555 15.1097 21.543 16.5511 22.918 16.8793C23.3398 16.9808 23.7969 17.0316 24.2891 17.0316C24.7812 17.0316 25.2031 16.9808 25.5547 16.8793C25.9141 16.7699 26.2109 16.559 26.4453 16.2465ZM43.0859 7.46912C44.3828 6.28943 45.6562 5.69958 46.9062 5.69958C48.7422 5.69958 49.8398 6.57849 50.1992 8.3363C50.3164 8.91443 50.375 9.47693 50.375 10.0238C50.375 10.5629 50.3672 11.1019 50.3516 11.641C50.3438 12.1801 50.3281 12.7582 50.3047 13.3754L50.2344 15.2386C50.2109 15.8636 50.1875 16.4301 50.1641 16.9379L51.8633 16.8324C52.0273 16.8324 52.1094 16.9261 52.1094 17.1136L51.875 19.0707C51.875 19.1644 51.8516 19.223 51.8047 19.2465C51.7656 19.2777 51.6992 19.2972 51.6055 19.3051L48.1016 19.2113C47.9219 19.2113 47.832 19.1254 47.832 18.9535C47.8555 18.0941 47.8672 17.3129 47.8672 16.6097L47.8906 14.7582C47.8906 14.2347 47.8906 13.7426 47.8906 13.2816V11.2308C47.8906 10.2152 47.8086 9.55505 47.6445 9.25037C47.4883 8.94568 47.2969 8.73865 47.0703 8.62927C46.8438 8.51208 46.5156 8.45349 46.0859 8.45349C45.3359 8.45349 44.4961 8.70349 43.5664 9.20349C43.6211 9.5863 43.6484 10.0082 43.6484 10.4691C43.6484 10.9222 43.6445 11.4222 43.6367 11.9691C43.6289 12.5082 43.6172 13.0785 43.6016 13.6801C43.5938 14.2816 43.582 14.8832 43.5664 15.4847C43.5586 16.0863 43.5469 16.6254 43.5312 17.1019L45.0664 17.0668C45.2305 17.0668 45.3125 17.1605 45.3125 17.348L45.1953 18.9535C45.1875 19.0472 45.1641 19.1097 45.125 19.141C45.0859 19.1644 45.0195 19.1801 44.9258 19.1879L40.5781 19.0941C40.4141 19.0941 40.332 19.0082 40.332 18.8363L40.2734 17.1957C40.2891 17.0316 40.375 16.9496 40.5312 16.9496L41.2578 17.0082C41.2734 15.9301 41.2812 14.9613 41.2812 14.1019V11.2308C41.2812 10.2308 41.1914 9.57068 41.0117 9.25037C40.8398 8.93005 40.6367 8.7113 40.4023 8.59412C40.168 8.46912 39.8594 8.40662 39.4766 8.40662C38.5391 8.40662 37.543 8.80115 36.4883 9.59021V16.8793L37.7188 16.8207C37.8516 16.8207 37.918 16.8871 37.918 17.0199L38.0469 18.8363C38.0156 19.0082 37.9297 19.0941 37.7891 19.0941L32.9844 18.9769C32.8047 18.9769 32.7148 18.8832 32.7148 18.6957L32.5977 16.9027C32.6289 16.7386 32.7148 16.6566 32.8555 16.6566H33.9922V8.94568H32.1992C32.043 8.94568 31.9648 8.85193 31.9648 8.66443L31.9414 6.42615C31.9727 6.28552 32.0664 6.20349 32.2227 6.18005L35.1758 6.28552C35.3164 6.30115 35.4062 6.39099 35.4453 6.55505L35.7852 8.11365C37.2773 6.5824 38.7344 5.81677 40.1562 5.81677C41.5859 5.81677 42.5625 6.36755 43.0859 7.46912ZM62.9258 19.1176C61.9258 19.3676 60.6562 19.4926 59.1172 19.4926C57.5469 19.4926 56.4062 19.0082 55.6953 18.0394C54.9531 17.0316 54.582 15.434 54.582 13.2465C54.582 10.9496 54.8984 9.23474 55.5312 8.10193C56.25 6.85193 57.3984 6.09021 58.9766 5.81677C59.5234 5.72302 60.1328 5.67615 60.8047 5.67615C62.25 5.67615 63.3008 6.03162 63.957 6.74255C64.6133 7.45349 64.9414 8.53943 64.9414 10.0004C64.9414 10.9535 64.7734 11.6879 64.4375 12.2035C64.3281 12.3676 64.1797 12.5551 63.9922 12.766C63.8047 12.9691 63.457 13.1527 62.9492 13.3168C62.4492 13.473 61.875 13.5941 61.2266 13.6801C60.2188 13.8051 58.832 13.8676 57.0664 13.8676C57.168 15.1879 57.4922 16.0863 58.0391 16.5629C58.4531 16.9379 59.1719 17.1254 60.1953 17.1254C61.1562 17.1254 62.1133 17.0433 63.0664 16.8793L63.1016 16.2699C63.1094 16.1761 63.1289 16.1136 63.1602 16.0824C63.1992 16.0511 63.2656 16.0238 63.3594 16.0004L65.0469 15.6254C65.2188 15.6254 65.3164 15.6996 65.3398 15.848C65.3633 15.9808 65.3867 16.2426 65.4102 16.6332C65.4336 17.016 65.457 17.348 65.4805 17.6293C65.5039 17.9105 65.5234 18.1801 65.5391 18.4379L65.5859 19.0941C65.5938 19.2894 65.5977 19.4535 65.5977 19.5863C65.5977 19.8207 65.4258 19.9574 65.082 19.9965L63.1367 20.2308C62.9648 20.2308 62.8789 20.1449 62.8789 19.973L62.9258 19.1176ZM61.8359 11.4418C62.0391 11.2621 62.1602 11.0551 62.1992 10.8207C62.2461 10.5785 62.2695 10.2972 62.2695 9.97693C62.2695 9.6488 62.2383 9.35974 62.1758 9.10974C62.1211 8.85974 62.0234 8.6449 61.8828 8.46521C61.5781 8.09021 61.082 7.90271 60.3945 7.90271C59.0664 7.90271 58.1797 8.23865 57.7344 8.91052C57.3125 9.53552 57.0781 10.6136 57.0312 12.1449C59.7578 12.1058 61.3594 11.8715 61.8359 11.4418ZM67.3086 6.29724C67.3086 6.14099 67.3984 6.06287 67.5781 6.06287H72.8984C73.0078 6.06287 73.0703 6.0863 73.0859 6.13318C73.1016 6.17224 73.1094 6.23474 73.1094 6.32068L72.9336 8.19568C72.918 8.29724 72.8945 8.36365 72.8633 8.3949C72.832 8.42615 72.7695 8.44177 72.6758 8.44177L71.4453 8.47693L74.4336 16.8676L77.0352 8.30115L75.6055 8.45349C75.4805 8.45349 75.4141 8.38708 75.4062 8.25427L75.2773 6.32068C75.3008 6.16443 75.3867 6.07849 75.5352 6.06287L80.5391 5.82849C80.6641 5.8363 80.7266 5.93005 80.7266 6.10974V8.25427C80.6953 8.41833 80.6094 8.50037 80.4688 8.50037H79.3086L75.6758 18.9886C75.6289 19.1371 75.5234 19.2191 75.3594 19.2347L73.2617 19.3285C73.1133 19.3129 73.0039 19.2191 72.9336 19.0472L68.6328 8.53552L67.5547 8.55896C67.3906 8.55896 67.3086 8.46521 67.3086 8.27771V6.29724ZM90.957 19.1176C89.957 19.3676 88.6875 19.4926 87.1484 19.4926C85.5781 19.4926 84.4375 19.0082 83.7266 18.0394C82.9844 17.0316 82.6133 15.434 82.6133 13.2465C82.6133 10.9496 82.9297 9.23474 83.5625 8.10193C84.2812 6.85193 85.4297 6.09021 87.0078 5.81677C87.5547 5.72302 88.1641 5.67615 88.8359 5.67615C90.2812 5.67615 91.332 6.03162 91.9883 6.74255C92.6445 7.45349 92.9727 8.53943 92.9727 10.0004C92.9727 10.9535 92.8047 11.6879 92.4688 12.2035C92.3594 12.3676 92.2109 12.5551 92.0234 12.766C91.8359 12.9691 91.4883 13.1527 90.9805 13.3168C90.4805 13.473 89.9062 13.5941 89.2578 13.6801C88.25 13.8051 86.8633 13.8676 85.0977 13.8676C85.1992 15.1879 85.5234 16.0863 86.0703 16.5629C86.4844 16.9379 87.2031 17.1254 88.2266 17.1254C89.1875 17.1254 90.1445 17.0433 91.0977 16.8793L91.1328 16.2699C91.1406 16.1761 91.1602 16.1136 91.1914 16.0824C91.2305 16.0511 91.2969 16.0238 91.3906 16.0004L93.0781 15.6254C93.25 15.6254 93.3477 15.6996 93.3711 15.848C93.3945 15.9808 93.418 16.2426 93.4414 16.6332C93.4648 17.016 93.4883 17.348 93.5117 17.6293C93.5352 17.9105 93.5547 18.1801 93.5703 18.4379L93.6172 19.0941C93.625 19.2894 93.6289 19.4535 93.6289 19.5863C93.6289 19.8207 93.457 19.9574 93.1133 19.9965L91.168 20.2308C90.9961 20.2308 90.9102 20.1449 90.9102 19.973L90.957 19.1176ZM89.8672 11.4418C90.0703 11.2621 90.1914 11.0551 90.2305 10.8207C90.2773 10.5785 90.3008 10.2972 90.3008 9.97693C90.3008 9.6488 90.2695 9.35974 90.207 9.10974C90.1523 8.85974 90.0547 8.6449 89.9141 8.46521C89.6094 8.09021 89.1133 7.90271 88.4258 7.90271C87.0977 7.90271 86.2109 8.23865 85.7656 8.91052C85.3438 9.53552 85.1094 10.6136 85.0625 12.1449C87.7891 12.1058 89.3906 11.8715 89.8672 11.4418ZM96.6406 19.3285C96.5156 19.3285 96.4531 19.2347 96.4531 19.0472V17.0199C96.4531 16.8558 96.5391 16.7738 96.7109 16.7738H98.082V8.84021L96.4062 8.98083C96.2812 8.97302 96.2031 8.87927 96.1719 8.69958L95.9141 6.20349C95.9375 6.05505 96.0312 5.97302 96.1953 5.9574L99.793 5.7113C99.9336 5.7113 100.004 5.80115 100.004 5.98083L99.8281 7.91443C100.711 6.93787 102.008 6.28943 103.719 5.96912C104.234 5.86755 104.73 5.81677 105.207 5.81677C105.684 5.81677 105.93 5.94177 105.945 6.19177L106.086 10.4808C106.086 10.6215 106.027 10.6996 105.91 10.7152L103.707 10.8793C103.613 10.8793 103.539 10.8636 103.484 10.8324C103.43 10.8011 103.402 10.7191 103.402 10.5863V8.51208C102.387 8.59802 101.492 8.80115 100.719 9.12146L100.59 16.8558L102.629 16.7035C102.754 16.7035 102.82 16.7699 102.828 16.9027L102.957 18.8363C102.934 18.9926 102.848 19.0785 102.699 19.0941L96.6406 19.3285ZM117.277 9.19177C115.168 8.47302 113.68 8.11365 112.812 8.11365C111.875 8.11365 111.242 8.34412 110.914 8.80505C110.781 8.98474 110.715 9.2074 110.715 9.47302C110.715 9.73865 110.746 9.96912 110.809 10.1644C110.871 10.3597 110.984 10.5316 111.148 10.6801C111.477 10.9926 112.109 11.223 113.047 11.3715C113.984 11.5199 114.801 11.684 115.496 11.8636C116.199 12.0355 116.762 12.2621 117.184 12.5433C117.613 12.8168 117.918 13.1644 118.098 13.5863C118.285 14.0082 118.379 14.5511 118.379 15.2152C118.379 15.8715 118.281 16.4535 118.086 16.9613C117.891 17.4691 117.613 17.8988 117.254 18.2504C116.527 18.9457 115.52 19.2933 114.23 19.2933C113.348 19.2933 112.332 19.184 111.184 18.9652L111.383 19.9379C111.383 20.0629 111.293 20.1332 111.113 20.1488L109.098 20.3246C108.801 20.3246 108.637 20.1722 108.605 19.8676L108.277 16.3871C108.277 16.2465 108.371 16.1605 108.559 16.1293L110.387 15.8011C110.52 15.8011 110.602 15.891 110.633 16.0707L110.773 16.8441C111.906 17.0238 112.84 17.1136 113.574 17.1136C114.309 17.1136 114.855 16.9613 115.215 16.6566C115.574 16.3441 115.754 15.934 115.754 15.4261C115.754 14.9496 115.562 14.6097 115.18 14.4066C114.844 14.2191 114.184 14.0511 113.199 13.9027C112.223 13.7465 111.418 13.5785 110.785 13.3988C110.152 13.2113 109.633 12.9652 109.227 12.6605C108.453 12.0824 108.066 11.1019 108.066 9.71912C108.066 8.51599 108.43 7.55505 109.156 6.8363C109.93 6.07849 111.012 5.69958 112.402 5.69958C113.223 5.69958 114.168 5.97302 115.238 6.5199L115.016 5.59412C115.016 5.40662 115.098 5.30505 115.262 5.28943L117.582 5.10193C117.707 5.10193 117.77 5.19177 117.77 5.37146L117.512 8.94568C117.504 9.10974 117.426 9.19177 117.277 9.19177ZM128.973 19.1176C127.973 19.3676 126.703 19.4926 125.164 19.4926C123.594 19.4926 122.453 19.0082 121.742 18.0394C121 17.0316 120.629 15.434 120.629 13.2465C120.629 10.9496 120.945 9.23474 121.578 8.10193C122.297 6.85193 123.445 6.09021 125.023 5.81677C125.57 5.72302 126.18 5.67615 126.852 5.67615C128.297 5.67615 129.348 6.03162 130.004 6.74255C130.66 7.45349 130.988 8.53943 130.988 10.0004C130.988 10.9535 130.82 11.6879 130.484 12.2035C130.375 12.3676 130.227 12.5551 130.039 12.766C129.852 12.9691 129.504 13.1527 128.996 13.3168C128.496 13.473 127.922 13.5941 127.273 13.6801C126.266 13.8051 124.879 13.8676 123.113 13.8676C123.215 15.1879 123.539 16.0863 124.086 16.5629C124.5 16.9379 125.219 17.1254 126.242 17.1254C127.203 17.1254 128.16 17.0433 129.113 16.8793L129.148 16.2699C129.156 16.1761 129.176 16.1136 129.207 16.0824C129.246 16.0511 129.312 16.0238 129.406 16.0004L131.094 15.6254C131.266 15.6254 131.363 15.6996 131.387 15.848C131.41 15.9808 131.434 16.2426 131.457 16.6332C131.48 17.016 131.504 17.348 131.527 17.6293C131.551 17.9105 131.57 18.1801 131.586 18.4379L131.633 19.0941C131.641 19.2894 131.645 19.4535 131.645 19.5863C131.645 19.8207 131.473 19.9574 131.129 19.9965L129.184 20.2308C129.012 20.2308 128.926 20.1449 128.926 19.973L128.973 19.1176ZM127.883 11.4418C128.086 11.2621 128.207 11.0551 128.246 10.8207C128.293 10.5785 128.316 10.2972 128.316 9.97693C128.316 9.6488 128.285 9.35974 128.223 9.10974C128.168 8.85974 128.07 8.6449 127.93 8.46521C127.625 8.09021 127.129 7.90271 126.441 7.90271C125.113 7.90271 124.227 8.23865 123.781 8.91052C123.359 9.53552 123.125 10.6136 123.078 12.1449C125.805 12.1058 127.406 11.8715 127.883 11.4418ZM137.727 16.9496C137.82 17.1527 137.887 17.3715 137.926 17.6058C137.973 17.8402 137.996 18.059 137.996 18.2621C137.996 18.4652 137.926 18.6527 137.785 18.8246C137.652 18.9886 137.473 19.1254 137.246 19.2347C136.777 19.4613 136.324 19.5746 135.887 19.5746C135.449 19.5746 135.148 19.5043 134.984 19.3636C134.82 19.2308 134.688 19.0629 134.586 18.8597C134.391 18.4691 134.293 18.0863 134.293 17.7113C134.293 17.3285 134.379 17.0511 134.551 16.8793C134.723 16.7074 134.934 16.5707 135.184 16.4691C135.613 16.3051 136.039 16.223 136.461 16.223C136.891 16.223 137.184 16.2933 137.34 16.434C137.504 16.5668 137.633 16.7386 137.727 16.9496ZM140.82 19.3519C140.711 19.3519 140.656 19.2582 140.656 19.0707V17.3011C140.656 17.1527 140.719 17.0785 140.844 17.0785H142.25L142.344 8.88708L140.445 8.68787C140.305 8.67224 140.234 8.5863 140.234 8.43005L140.492 6.49646C140.523 6.35583 140.617 6.2738 140.773 6.25037L144.535 5.86365C144.621 5.86365 144.676 5.88708 144.699 5.93396C144.723 5.97302 144.738 6.03943 144.746 6.13318L144.898 8.26599L144.863 17.0785H146.199C146.324 17.0785 146.387 17.1527 146.387 17.3011L146.176 18.8363C146.16 18.9301 146.133 18.9926 146.094 19.0238C146.062 19.0472 145.996 19.0629 145.895 19.0707L140.82 19.3519ZM144.465 3.22693C144.316 3.34412 144.117 3.42224 143.867 3.4613C143.617 3.50037 143.316 3.5199 142.965 3.5199C142.621 3.5199 142.355 3.50037 142.168 3.4613C141.988 3.42224 141.844 3.35193 141.734 3.25037C141.555 3.06287 141.465 2.73083 141.465 2.25427C141.465 1.77771 141.488 1.43787 141.535 1.23474C141.59 1.0238 141.688 0.859741 141.828 0.742554C142.07 0.539429 142.465 0.437866 143.012 0.437866C143.566 0.437866 143.938 0.453491 144.125 0.484741C144.312 0.508179 144.461 0.570679 144.57 0.672241C144.758 0.836304 144.852 1.16443 144.852 1.65662C144.852 2.1488 144.824 2.50427 144.77 2.72302C144.715 2.94177 144.613 3.10974 144.465 3.22693ZM148.52 12.6019C148.52 11.266 148.629 10.1566 148.848 9.2738C149.074 8.38318 149.406 7.67224 149.844 7.14099C150.656 6.18005 151.98 5.69958 153.816 5.69958C155.098 5.69958 156.031 5.82849 156.617 6.0863C157.211 6.34412 157.676 6.63708 158.012 6.96521C158.355 7.29333 158.648 7.71521 158.891 8.23083C159.375 9.28552 159.617 10.6136 159.617 12.2152C159.617 13.809 159.504 15.0394 159.277 15.9066C159.059 16.7738 158.727 17.4691 158.281 17.9926C157.453 18.9457 156.113 19.4222 154.262 19.4222C152.324 19.4222 150.914 18.9535 150.031 18.016C149.023 16.9535 148.52 15.1488 148.52 12.6019ZM156.5 16.2465C156.734 15.934 156.91 15.4965 157.027 14.934C157.145 14.3715 157.203 13.684 157.203 12.8715C157.203 12.059 157.16 11.4027 157.074 10.9027C156.988 10.4027 156.867 9.98865 156.711 9.66052C156.562 9.32458 156.383 9.06287 156.172 8.87537C155.961 8.68005 155.73 8.53552 155.48 8.44177C155.105 8.30115 154.609 8.23083 153.992 8.23083C153.375 8.23083 152.883 8.27771 152.516 8.37146C152.148 8.46521 151.844 8.66443 151.602 8.96912C151.141 9.56287 150.91 10.7582 150.91 12.5551C150.91 15.1097 151.598 16.5511 152.973 16.8793C153.395 16.9808 153.852 17.0316 154.344 17.0316C154.836 17.0316 155.258 16.9808 155.609 16.8793C155.969 16.7699 156.266 16.559 156.5 16.2465Z" fill="white"/>
</svg>
