<svg width="72" height="77" viewBox="0 0 72 77" fill="none" xmlns="http://www.w3.org/2000/svg">
<path d="M37.9606 0.807864C37.7034 0.551783 37.3978 0.34861 37.0613 0.209983C36.7249 0.0713568 36.3642 0 36 0C35.6357 0 35.2751 0.0713568 34.9386 0.209983C34.6022 0.34861 34.2966 0.551783 34.0394 0.807864L0.80862 33.8058C0.551625 34.0616 0.347931 34.3652 0.209183 34.6993C0.0704352 35.0333 -0.000645506 35.3913 4.4169e-06 35.7526V74.2502C4.4169e-06 74.9795 0.291762 75.6789 0.811093 76.1946C1.33042 76.7103 2.03479 77 2.76923 77H27.6923C28.4268 77 29.1311 76.7103 29.6504 76.1946C30.1698 75.6789 30.4615 74.9795 30.4615 74.2502V52.2516H41.5385V74.2502C41.5385 74.9795 41.8302 75.6789 42.3495 76.1946C42.8689 76.7103 43.5732 77 44.3077 77H69.2308C69.9652 77 70.6696 76.7103 71.1889 76.1946C71.7082 75.6789 72 74.9795 72 74.2502V35.7526C72.0006 35.3913 71.9296 35.0333 71.7908 34.6993C71.6521 34.3652 71.4484 34.0616 71.1914 33.8058L63.6923 26.3647V8.25439C63.6923 7.52509 63.4005 6.82566 62.8812 6.30997C62.3619 5.79428 61.6575 5.50456 60.9231 5.50456H55.3846C54.6502 5.50456 53.9458 5.79428 53.4265 6.30997C52.9071 6.82566 52.6154 7.52509 52.6154 8.25439V15.3654L37.9606 0.807864ZM5.53847 71.5004V36.8911L36 6.64299L66.4615 36.8911V71.5004H47.0769V49.5018C47.0769 48.7725 46.7852 48.073 46.2658 47.5573C45.7465 47.0416 45.0421 46.7519 44.3077 46.7519H27.6923C26.9579 46.7519 26.2535 47.0416 25.7342 47.5573C25.2148 48.073 24.9231 48.7725 24.9231 49.5018V71.5004H5.53847Z" fill="#1DAEFF"/>
</svg>
