<svg width="17" height="16" viewBox="0 0 17 16" fill="none" xmlns="http://www.w3.org/2000/svg">
<path d="M15.9535 12.5474C15.9535 12.8061 15.8936 13.0719 15.7663 13.3305C15.639 13.5891 15.4742 13.8334 15.2571 14.0633C14.8902 14.4512 14.4858 14.7314 14.0291 14.911C13.5798 15.0906 13.0931 15.184 12.5689 15.184C11.8051 15.184 10.9889 15.0115 10.1278 14.6595C9.26671 14.3075 8.40559 13.8334 7.55197 13.2371C6.69085 12.6336 5.87466 11.9655 5.09591 11.2256C4.32465 10.4784 3.62827 9.69537 3.00677 8.87639C2.39276 8.05741 1.89856 7.23843 1.53913 6.42664C1.17971 5.60766 1 4.8246 1 4.07746C1 3.58895 1.08986 3.12199 1.26957 2.69095C1.44928 2.25272 1.73382 1.85042 2.13068 1.49122C2.60991 1.03862 3.13407 0.815918 3.68818 0.815918C3.89784 0.815918 4.1075 0.859022 4.2947 0.94523C4.48939 1.03144 4.66161 1.16075 4.7964 1.34754L6.5336 3.69671C6.66839 3.87631 6.76573 4.04154 6.83312 4.19959C6.90051 4.35046 6.93795 4.50132 6.93795 4.63782C6.93795 4.81023 6.88554 4.98265 6.78071 5.14788C6.68336 5.31312 6.54109 5.48553 6.36138 5.65795L5.79229 6.22549C5.70993 6.30451 5.67249 6.3979 5.67249 6.51285C5.67249 6.57032 5.67998 6.62061 5.69495 6.67808C5.71742 6.73555 5.73988 6.77866 5.75486 6.82176C5.88964 7.05883 6.12177 7.36775 6.45124 7.74132C6.78819 8.11489 7.14762 8.49564 7.53699 8.87639C7.94134 9.25714 8.33071 9.60916 8.72758 9.93244C9.11695 10.2485 9.43893 10.4641 9.69352 10.5934C9.73096 10.6077 9.77589 10.6293 9.82831 10.6508C9.88821 10.6724 9.94811 10.6796 10.0155 10.6796C10.1428 10.6796 10.2401 10.6365 10.3225 10.5575L10.8916 10.0187C11.0788 9.83905 11.2585 9.70255 11.4307 9.61635C11.603 9.51577 11.7752 9.46548 11.9624 9.46548C12.1046 9.46548 12.2544 9.49422 12.4191 9.55887C12.5839 9.62353 12.7561 9.71692 12.9433 9.83905L15.4218 11.5273C15.6165 11.6566 15.7513 11.8075 15.8337 11.9871C15.9085 12.1667 15.9535 12.3463 15.9535 12.5474Z" stroke="white" stroke-opacity="0.8" stroke-miterlimit="10"/>
<path d="M13.36 5.84497C13.36 5.41393 13.0081 4.753 12.484 4.2142C12.0047 3.7185 11.3682 3.33057 10.7393 3.33057" stroke="white" stroke-opacity="0.8" stroke-linecap="round" stroke-linejoin="round"/>
<path d="M15.9808 5.84473C15.9808 3.06452 13.6371 0.815918 10.7393 0.815918" stroke="white" stroke-opacity="0.8" stroke-linecap="round" stroke-linejoin="round"/>
</svg>
