<svg width="24" height="24" viewBox="0 0 24 24" fill="none" xmlns="http://www.w3.org/2000/svg">
<path d="M12.3749 10.5H14.9999V9H13.4999V8.25H11.9999V9.0375C11.5443 9.13003 11.1392 9.38858 10.8634 9.76295C10.5876 10.1373 10.4608 10.6008 10.5075 11.0634C10.5543 11.5261 10.7712 11.9548 11.1163 12.2665C11.4614 12.5781 11.91 12.7505 12.3749 12.75H13.1249C13.2244 12.75 13.3198 12.7895 13.3901 12.8598C13.4604 12.9302 13.4999 13.0255 13.4999 13.125C13.4999 13.2245 13.4604 13.3198 13.3901 13.3902C13.3198 13.4605 13.2244 13.5 13.1249 13.5H10.4999V15H11.9999V15.75H13.4999V14.9625C13.9556 14.87 14.3607 14.6114 14.6364 14.2371C14.9122 13.8627 15.0391 13.3992 14.9923 12.9366C14.9456 12.4739 14.7286 12.0452 14.3836 11.7335C14.0385 11.4219 13.5899 11.2495 13.1249 11.25H12.3749C12.2755 11.25 12.1801 11.2105 12.1098 11.1402C12.0394 11.0698 11.9999 10.9745 11.9999 10.875C11.9999 10.7755 12.0394 10.6802 12.1098 10.6098C12.1801 10.5395 12.2755 10.5 12.3749 10.5Z" fill="#1B1B1B" fill-opacity="0.55"/>
<path d="M21.75 9.75H20.235C20.2134 9.15745 20.0705 8.57562 19.8151 8.04051C19.5597 7.50541 19.1972 7.0284 18.75 6.639V3.75C18.75 3.61072 18.7112 3.47418 18.638 3.3557C18.5648 3.23722 18.46 3.14147 18.3354 3.07918C18.2108 3.01689 18.0714 2.99052 17.9326 3.00303C17.7939 3.01554 17.6614 3.06643 17.55 3.15L14.7502 5.25H11.25C7.1175 5.25 4.15275 7.68075 3.789 11.25H3.75C3.55109 11.25 3.36032 11.171 3.21967 11.0303C3.07902 10.8897 3 10.6989 3 10.5V9H1.5V10.5C1.5006 11.0966 1.73784 11.6685 2.15967 12.0903C2.5815 12.5122 3.15345 12.7494 3.75 12.75H3.8025C3.91127 13.7334 4.23089 14.6819 4.73955 15.5305C5.24822 16.3792 5.93396 17.1082 6.75 17.6677V20.25C6.75 20.4489 6.82902 20.6397 6.96967 20.7803C7.11032 20.921 7.30109 21 7.5 21H10.5C10.6989 21 10.8897 20.921 11.0303 20.7803C11.171 20.6397 11.25 20.4489 11.25 20.25V18.75H13.5V20.25C13.5 20.4489 13.579 20.6397 13.7197 20.7803C13.8603 20.921 14.0511 21 14.25 21H17.25C17.4489 21 17.6397 20.921 17.7803 20.7803C17.921 20.6397 18 20.4489 18 20.25V17.7277C18.5418 17.4709 19.0155 17.0901 19.3828 16.6163C19.7501 16.1424 20.0006 15.5887 20.1143 15H21.75C21.9489 15 22.1397 14.921 22.2803 14.7803C22.421 14.6397 22.5 14.4489 22.5 14.25V10.5C22.5 10.3011 22.421 10.1103 22.2803 9.96967C22.1397 9.82902 21.9489 9.75 21.75 9.75ZM21 13.5H18.843C18.6143 15.5648 18.225 16.1138 16.5 16.7363V19.5H15V17.25H9.75V19.5H8.25V16.7835C7.34693 16.3539 6.58505 15.6757 6.0537 14.8284C5.52236 13.9812 5.24356 13 5.25 12C5.25 8.37375 8.2635 6.75 11.25 6.75H15.2498L17.25 5.25V7.332C19.0635 8.727 18.6847 9.7215 18.7635 11.25H21V13.5Z" fill="#1B1B1B" fill-opacity="0.55"/>
</svg>
