<svg width="24" height="24" viewBox="0 0 24 24" fill="none" xmlns="http://www.w3.org/2000/svg">
<path d="M20.7133 5.1397C20.5749 4.94223 20.391 4.78099 20.1771 4.66964C19.9632 4.55829 19.7256 4.50011 19.4845 4.5H2.25C1.85231 4.50045 1.47104 4.65863 1.18983 4.93983C0.908625 5.22104 0.750447 5.60231 0.75 6V17.625H2.67572C2.8075 18.3611 3.19392 19.0273 3.76736 19.5072C4.3408 19.9871 5.06475 20.2501 5.8125 20.2501C6.56025 20.2501 7.2842 19.9871 7.85764 19.5072C8.43108 19.0273 8.8175 18.3611 8.94928 17.625H14.6757C14.8075 18.3611 15.1939 19.0273 15.7674 19.5072C16.3408 19.9871 17.0647 20.2501 17.8125 20.2501C18.5603 20.2501 19.2842 19.9871 19.8576 19.5072C20.4311 19.0273 20.8175 18.3611 20.9493 17.625H23.25V9.11817C23.2504 8.8873 23.1793 8.66197 23.0467 8.47303L20.7133 5.1397ZM8.4375 6H15.1875V10.5H8.4375V6ZM2.25 6H6.9375V10.5H2.25V6ZM5.8125 18.75C5.47874 18.75 5.15248 18.651 4.87498 18.4656C4.59747 18.2802 4.38118 18.0166 4.25345 17.7083C4.12573 17.3999 4.09231 17.0606 4.15742 16.7333C4.22254 16.4059 4.38326 16.1053 4.61926 15.8693C4.85526 15.6333 5.15594 15.4725 5.48328 15.4074C5.81063 15.3423 6.14993 15.3757 6.45828 15.5035C6.76663 15.6312 7.03018 15.8475 7.21561 16.125C7.40103 16.4025 7.5 16.7287 7.5 17.0625C7.4995 17.5099 7.32155 17.9388 7.00519 18.2552C6.68883 18.5716 6.2599 18.7495 5.8125 18.75V18.75ZM17.8125 18.75C17.4787 18.75 17.1525 18.651 16.875 18.4656C16.5975 18.2802 16.3812 18.0166 16.2535 17.7083C16.1257 17.3999 16.0923 17.0606 16.1574 16.7333C16.2225 16.4059 16.3833 16.1053 16.6193 15.8693C16.8553 15.6333 17.1559 15.4725 17.4833 15.4074C17.8106 15.3423 18.1499 15.3757 18.4583 15.5035C18.7666 15.6312 19.0302 15.8475 19.2156 16.125C19.401 16.4025 19.5 16.7287 19.5 17.0625C19.4995 17.5099 19.3216 17.9388 19.0052 18.2552C18.6888 18.5716 18.2599 18.7495 17.8125 18.75V18.75ZM21.75 16.125H20.8591C20.6587 15.4734 20.2546 14.9033 19.7063 14.4983C19.1579 14.0933 18.4942 13.8747 17.8125 13.8747C17.1308 13.8747 16.4671 14.0933 15.9187 14.4983C15.3704 14.9033 14.9663 15.4734 14.7659 16.125H8.85909C8.65865 15.4734 8.2546 14.9033 7.70627 14.4983C7.15793 14.0933 6.49419 13.8747 5.8125 13.8747C5.13081 13.8747 4.46707 14.0933 3.91873 14.4983C3.3704 14.9033 2.96635 15.4734 2.76591 16.125H2.25V12H21.75V16.125ZM21.75 10.5H16.6875V6H19.4845L21.75 9.23639V10.5Z" fill="#1B1B1B" fill-opacity="0.55"/>
</svg>
