<svg width="16" height="16" viewBox="0 0 16 16" fill="none" xmlns="http://www.w3.org/2000/svg">
<g clip-path="url(#clip0_46_85)">
<path d="M14.5 8.74992H2.5V3.12492C2.49942 2.91309 2.54086 2.70324 2.62193 2.50753C2.703 2.31182 2.82208 2.13414 2.97228 1.98476L2.98478 1.97226C3.22018 1.73721 3.5224 1.58057 3.85016 1.52373C4.17792 1.46689 4.51524 1.51263 4.81603 1.6547C4.53196 2.12701 4.41389 2.68071 4.48057 3.22782C4.54726 3.77493 4.79488 4.28405 5.18409 4.67429L5.52631 5.01651L4.89641 5.64645L5.60347 6.35351L6.23338 5.72361L9.72366 2.23339L10.3536 1.60348L9.64647 0.896387L9.01653 1.52629L8.67431 1.18407C8.26458 0.77549 7.72448 0.523624 7.14812 0.472366C6.57176 0.421108 5.99568 0.573708 5.52028 0.903575C5.01897 0.586985 4.4249 0.450311 3.83564 0.516005C3.24638 0.581699 2.69699 0.845853 2.27772 1.26507L2.26522 1.27757C2.02186 1.5196 1.82892 1.8075 1.69757 2.1246C1.56622 2.44169 1.49907 2.7817 1.5 3.12492V8.74992H0.5V9.74992H1.5V10.7093C1.49998 10.7899 1.51298 10.87 1.5385 10.9465L2.46875 13.7371C2.51839 13.8865 2.61385 14.0164 2.74156 14.1085C2.86928 14.2006 3.02275 14.25 3.18019 14.2499H3.58331L3.21875 15.4999H4.26041L4.625 14.2499H11.1281L11.5031 15.4999H12.5469L12.1719 14.2499H12.8197C12.9771 14.2501 13.1306 14.2006 13.2584 14.1085C13.3861 14.0165 13.4816 13.8865 13.5312 13.7371L14.4614 10.9465C14.487 10.87 14.5 10.7899 14.5 10.7093V9.74992H15.5V8.74992H14.5ZM5.89125 1.89117C6.16675 1.61627 6.54004 1.46188 6.92923 1.46188C7.31842 1.46188 7.69172 1.61627 7.96722 1.89117L8.30937 2.23339L6.23347 4.30929L5.89125 3.96714C5.61637 3.69163 5.46199 3.31834 5.46199 2.92915C5.46199 2.53997 5.61637 2.16667 5.89125 1.89117V1.89117ZM13.5 10.6687L12.6396 13.2499H3.36037L2.5 10.6687V9.74992H13.5V10.6687Z" fill="#FFFBFB" fill-opacity="0.65"/>
</g>
<defs>
<clipPath id="clip0_46_85">
<rect width="16" height="16" fill="white"/>
</clipPath>
</defs>
</svg>
