<svg width="16" height="16" viewBox="0 0 16 16" fill="none" xmlns="http://www.w3.org/2000/svg">
<path d="M10.8001 2.3999C11.3079 2.39982 11.7967 2.59289 12.1673 2.93993C12.538 3.28698 12.7628 3.76202 12.7961 4.2687L12.8001 4.3999V6.4399C13.2288 6.52757 13.6169 6.75334 13.905 7.08264C14.1931 7.41193 14.3653 7.82659 14.3953 8.2631L14.4001 8.3999V13.1999C14.4003 13.2999 14.363 13.3963 14.2957 13.4701C14.2283 13.544 14.1358 13.59 14.0362 13.599C13.9367 13.608 13.8374 13.5795 13.7578 13.5189C13.6783 13.4584 13.6243 13.3703 13.6065 13.2719L13.6001 13.1999V11.1999H2.4001V13.1999C2.40028 13.2999 2.36303 13.3963 2.29569 13.4701C2.22835 13.544 2.13579 13.59 2.03624 13.599C1.93669 13.608 1.83737 13.5795 1.75783 13.5189C1.67829 13.4584 1.62431 13.3703 1.6065 13.2719L1.6001 13.1999V8.3999C1.6 7.93884 1.75921 7.49191 2.05078 7.13474C2.34234 6.77758 2.74835 6.53211 3.2001 6.4399V4.3999C3.20002 3.89213 3.39308 3.40333 3.74013 3.03267C4.08718 2.662 4.56222 2.43721 5.0689 2.4039L5.2001 2.3999H10.8001ZM12.4001 7.1999H3.6001C3.30192 7.1999 3.01441 7.31091 2.79361 7.5113C2.57281 7.7117 2.43452 7.98712 2.4057 8.2839L2.4001 8.3999V10.3999H13.6001V8.3999C13.6001 8.10172 13.4891 7.81422 13.2887 7.59342C13.0883 7.37261 12.8129 7.23433 12.5161 7.2055L12.4001 7.1999ZM10.8001 3.1999H5.2001C4.90179 3.19992 4.61418 3.31104 4.39336 3.5116C4.17254 3.71216 4.03434 3.98777 4.0057 4.2847L4.0001 4.3999V6.3999H4.8001V5.9999C4.8001 5.89382 4.84224 5.79207 4.91726 5.71706C4.99227 5.64205 5.09401 5.5999 5.2001 5.5999H7.2001C7.30618 5.5999 7.40793 5.64205 7.48294 5.71706C7.55796 5.79207 7.6001 5.89382 7.6001 5.9999V6.3999H8.4001V5.9999C8.4001 5.89382 8.44224 5.79207 8.51725 5.71706C8.59227 5.64205 8.69401 5.5999 8.8001 5.5999H10.8001C10.9062 5.5999 11.0079 5.64205 11.0829 5.71706C11.158 5.79207 11.2001 5.89382 11.2001 5.9999V6.3999H12.0001V4.3999C12.0001 4.10172 11.8891 3.81422 11.6887 3.59342C11.4883 3.37261 11.2129 3.23433 10.9161 3.2055L10.8001 3.1999Z" fill="#FFFBFB" fill-opacity="0.65"/>
</svg>
