<svg width="24" height="24" viewBox="0 0 24 24" fill="none" xmlns="http://www.w3.org/2000/svg">
<path d="M5.25 1.5C5.44891 1.5 5.63968 1.57902 5.78033 1.71967C5.92098 1.86032 6 2.05109 6 2.25V6.75C5.99976 7.21549 6.14389 7.6696 6.41254 8.04974C6.68119 8.42988 7.06113 8.71734 7.5 8.8725V2.25C7.5 2.05109 7.57902 1.86032 7.71967 1.71967C7.86032 1.57902 8.05109 1.5 8.25 1.5C8.44891 1.5 8.63968 1.57902 8.78033 1.71967C8.92098 1.86032 9 2.05109 9 2.25V8.8725C9.43887 8.71734 9.81881 8.42988 10.0875 8.04974C10.3561 7.6696 10.5002 7.21549 10.5 6.75V2.25C10.5 2.05109 10.579 1.86032 10.7197 1.71967C10.8603 1.57902 11.0511 1.5 11.25 1.5C11.4489 1.5 11.6397 1.57902 11.7803 1.71967C11.921 1.86032 12 2.05109 12 2.25V6.75C12.0002 7.61449 11.7017 8.45249 11.155 9.12218C10.6083 9.79186 9.84702 10.2521 9 10.425V21.75C9 21.9489 8.92098 22.1397 8.78033 22.2803C8.63968 22.421 8.44891 22.5 8.25 22.5C8.05109 22.5 7.86032 22.421 7.71967 22.2803C7.57902 22.1397 7.5 21.9489 7.5 21.75V10.425C6.65298 10.2521 5.8917 9.79186 5.34502 9.12218C4.79834 8.45249 4.49982 7.61449 4.5 6.75V2.25C4.5 2.05109 4.57902 1.86032 4.71967 1.71967C4.86032 1.57902 5.05109 1.5 5.25 1.5ZM15.7185 3.7185C15.957 3.4785 16.2255 3.294 16.5 3.1725V10.5H15V5.25C15 4.7445 15.261 4.1745 15.7185 3.7185ZM16.5 12V21.75C16.5 21.9489 16.579 22.1397 16.7197 22.2803C16.8603 22.421 17.0511 22.5 17.25 22.5C17.4489 22.5 17.6397 22.421 17.7803 22.2803C17.921 22.1397 18 21.9489 18 21.75V2.25C18 2.05109 17.921 1.86032 17.7803 1.71967C17.6397 1.57902 17.4489 1.5 17.25 1.5C16.2555 1.5 15.3255 1.989 14.6565 2.6565C13.989 3.3255 13.5 4.2555 13.5 5.25V11.25C13.5 11.4489 13.579 11.6397 13.7197 11.7803C13.8603 11.921 14.0511 12 14.25 12H16.5Z" fill="#1B1B1B" fill-opacity="0.55"/>
</svg>
