<svg width="24" height="24" viewBox="0 0 24 24" fill="none" xmlns="http://www.w3.org/2000/svg">
<path d="M9.2 15.6L12 13.5L14.75 15.6L13.7 12.2L16.5 10H13.1L12 6.6L10.9 10H7.5L10.25 12.2L9.2 15.6ZM12 22C9.68333 21.4167 7.771 20.0873 6.263 18.012C4.75433 15.9373 4 13.6333 4 11.1V5L12 2L20 5V11.1C20 13.6333 19.246 15.9373 17.738 18.012C16.2293 20.0873 14.3167 21.4167 12 22ZM12 19.9C13.7333 19.35 15.1667 18.25 16.3 16.6C17.4333 14.95 18 13.1167 18 11.1V6.375L12 4.125L6 6.375V11.1C6 13.1167 6.56667 14.95 7.7 16.6C8.83333 18.25 10.2667 19.35 12 19.9V19.9Z" fill="#1B1B1B" fill-opacity="0.55"/>
</svg>
