<svg width="32" height="35" viewBox="0 0 32 35" fill="none" xmlns="http://www.w3.org/2000/svg">
<path d="M16.7374 0.358712C16.6239 0.245006 16.4892 0.154792 16.3409 0.093238C16.1925 0.0316842 16.0335 0 15.8729 0C15.7123 0 15.5533 0.0316842 15.4049 0.093238C15.2566 0.154792 15.1219 0.245006 15.0084 0.358712L0.356532 15.0106C0.243219 15.1242 0.153408 15.259 0.0922317 15.4074C0.0310558 15.5557 -0.000284612 15.7146 1.94747e-06 15.8751V32.969C1.94747e-06 33.2928 0.128642 33.6034 0.357622 33.8323C0.586603 34.0613 0.897167 34.19 1.22099 34.19H12.2099C12.5337 34.19 12.8443 34.0613 13.0733 33.8323C13.3023 33.6034 13.4309 33.2928 13.4309 32.969V23.201H18.3149V32.969C18.3149 33.2928 18.4435 33.6034 18.6725 33.8323C18.9015 34.0613 19.212 34.19 19.5359 34.19H30.5248C30.8486 34.19 31.1592 34.0613 31.3882 33.8323C31.6172 33.6034 31.7458 33.2928 31.7458 32.969V15.8751C31.7461 15.7146 31.7147 15.5557 31.6536 15.4074C31.5924 15.259 31.5026 15.1242 31.3893 15.0106L28.0828 11.7066V3.66516C28.0828 3.34133 27.9542 3.03077 27.7252 2.80179C27.4962 2.57281 27.1857 2.44417 26.8618 2.44417H24.4198C24.096 2.44417 23.7855 2.57281 23.5565 2.80179C23.3275 3.03077 23.1989 3.34133 23.1989 3.66516V6.82264L16.7374 0.358712ZM2.44199 31.748V16.3806L15.8729 2.94966L29.3038 16.3806V31.748H20.7569V21.98C20.7569 21.6562 20.6282 21.3456 20.3992 21.1167C20.1703 20.8877 19.8597 20.759 19.5359 20.759H12.2099C11.8861 20.759 11.5755 20.8877 11.3466 21.1167C11.1176 21.3456 10.9889 21.6562 10.9889 21.98V31.748H2.44199Z" fill="#1DAEFF"/>
</svg>
