<svg width="68" height="21" viewBox="0 0 68 21" fill="none" xmlns="http://www.w3.org/2000/svg">
<path d="M26.595 17V15.521L31.321 11.033C31.7177 10.659 32.0123 10.3303 32.205 10.047C32.3977 9.76367 32.5223 9.503 32.579 9.265C32.647 9.01567 32.681 8.78333 32.681 8.568C32.681 8.024 32.494 7.60467 32.12 7.31C31.746 7.004 31.1963 6.851 30.471 6.851C29.893 6.851 29.366 6.953 28.89 7.157C28.4253 7.361 28.023 7.67267 27.683 8.092L26.136 6.902C26.6007 6.27867 27.224 5.797 28.006 5.457C28.7993 5.10567 29.6833 4.93 30.658 4.93C31.5193 4.93 32.2673 5.07167 32.902 5.355C33.548 5.627 34.041 6.018 34.381 6.528C34.7323 7.038 34.908 7.64433 34.908 8.347C34.908 8.73233 34.857 9.11767 34.755 9.503C34.653 9.877 34.4603 10.2737 34.177 10.693C33.8937 11.1123 33.48 11.5827 32.936 12.104L28.873 15.963L28.414 15.13H35.367V17H26.595ZM41.1794 17.17C40.2387 17.17 39.3887 16.932 38.6294 16.456C37.8814 15.98 37.292 15.2887 36.8614 14.382C36.4307 13.464 36.2154 12.3533 36.2154 11.05C36.2154 9.74667 36.4307 8.64167 36.8614 7.735C37.292 6.817 37.8814 6.12 38.6294 5.644C39.3887 5.168 40.2387 4.93 41.1794 4.93C42.1314 4.93 42.9814 5.168 43.7294 5.644C44.4774 6.12 45.0667 6.817 45.4974 7.735C45.9394 8.64167 46.1604 9.74667 46.1604 11.05C46.1604 12.3533 45.9394 13.464 45.4974 14.382C45.0667 15.2887 44.4774 15.98 43.7294 16.456C42.9814 16.932 42.1314 17.17 41.1794 17.17ZM41.1794 15.249C41.7347 15.249 42.2164 15.1017 42.6244 14.807C43.0324 14.501 43.3497 14.0363 43.5764 13.413C43.8144 12.7897 43.9334 12.002 43.9334 11.05C43.9334 10.0867 43.8144 9.299 43.5764 8.687C43.3497 8.06367 43.0324 7.60467 42.6244 7.31C42.2164 7.004 41.7347 6.851 41.1794 6.851C40.6467 6.851 40.1707 7.004 39.7514 7.31C39.3434 7.60467 39.0204 8.06367 38.7824 8.687C38.5557 9.299 38.4424 10.0867 38.4424 11.05C38.4424 12.002 38.5557 12.7897 38.7824 13.413C39.0204 14.0363 39.3434 14.501 39.7514 14.807C40.1707 15.1017 40.6467 15.249 41.1794 15.249ZM52.1906 17.17C51.25 17.17 50.4 16.932 49.6406 16.456C48.8926 15.98 48.3033 15.2887 47.8726 14.382C47.442 13.464 47.2266 12.3533 47.2266 11.05C47.2266 9.74667 47.442 8.64167 47.8726 7.735C48.3033 6.817 48.8926 6.12 49.6406 5.644C50.4 5.168 51.25 4.93 52.1906 4.93C53.1426 4.93 53.9926 5.168 54.7406 5.644C55.4886 6.12 56.078 6.817 56.5086 7.735C56.9506 8.64167 57.1716 9.74667 57.1716 11.05C57.1716 12.3533 56.9506 13.464 56.5086 14.382C56.078 15.2887 55.4886 15.98 54.7406 16.456C53.9926 16.932 53.1426 17.17 52.1906 17.17ZM52.1906 15.249C52.746 15.249 53.2276 15.1017 53.6356 14.807C54.0436 14.501 54.361 14.0363 54.5876 13.413C54.8256 12.7897 54.9446 12.002 54.9446 11.05C54.9446 10.0867 54.8256 9.299 54.5876 8.687C54.361 8.06367 54.0436 7.60467 53.6356 7.31C53.2276 7.004 52.746 6.851 52.1906 6.851C51.658 6.851 51.182 7.004 50.7626 7.31C50.3546 7.60467 50.0316 8.06367 49.7936 8.687C49.567 9.299 49.4536 10.0867 49.4536 11.05C49.4536 12.002 49.567 12.7897 49.7936 13.413C50.0316 14.0363 50.3546 14.501 50.7626 14.807C51.182 15.1017 51.658 15.249 52.1906 15.249ZM60.1439 17L65.0569 5.984L65.6349 6.97H58.8859L59.9399 5.899V8.993H57.8829V5.1H67.1309V6.579L62.5069 17H60.1439Z" fill="white"/>
<path fill-rule="evenodd" clip-rule="evenodd" d="M12.5002 5H14.3335C15.0699 5 15.6668 5.59695 15.6668 6.33333V17.6667C15.6668 18.403 15.0699 19 14.3335 19H1.66683C0.93045 19 0.333496 18.403 0.333496 17.6667V6.33333C0.333496 5.59695 0.93045 5 1.66683 5H2.66683C2.85092 5 3.00016 5.14924 3.00016 5.33333V6.83333C3.00016 7.10948 3.22402 7.33333 3.50016 7.33333C3.77631 7.33333 4.00016 7.10948 4.00016 6.83333V3.66667C4.00016 3.29848 4.29864 3 4.66683 3C5.03502 3 5.3335 3.29848 5.3335 3.66667V4.834C5.33386 4.92579 5.40837 5 5.50016 5H9.66683C9.85092 5 10.0002 5.14924 10.0002 5.33333V6.83333C10.0002 7.10948 10.224 7.33333 10.5002 7.33333C10.7763 7.33333 11.0002 7.10948 11.0002 6.83333V3.66667C11.0002 3.29848 11.2986 3 11.6668 3C12.035 3 12.3335 3.29848 12.3335 3.66667V4.83333C12.3335 4.92538 12.4081 5 12.5002 5ZM2.00016 17.6667H14.0002C14.1843 17.6667 14.3335 17.5174 14.3335 17.3333V9.33333C14.3335 9.14924 14.1843 9 14.0002 9H2.00016C1.81607 9 1.66683 9.14924 1.66683 9.33333V17.3333C1.66683 17.5174 1.81607 17.6667 2.00016 17.6667Z" fill="white"/>
</svg>
