<svg width="95" height="56" viewBox="0 0 95 56" fill="none" xmlns="http://www.w3.org/2000/svg">
<g clip-path="url(#clip0_46_486)">
<path d="M44.7017 5.24256C44.5883 5.12886 44.4536 5.03864 44.3052 4.97709C44.1569 4.91553 43.9979 4.88385 43.8373 4.88385C43.6767 4.88385 43.5176 4.91553 43.3693 4.97709C43.221 5.03864 43.0862 5.12886 42.9728 5.24256L28.3209 19.8945C28.2076 20.0081 28.1178 20.1429 28.0566 20.2912C27.9954 20.4395 27.9641 20.5985 27.9644 20.7589V37.8528C27.9644 38.1766 28.093 38.4872 28.322 38.7162C28.551 38.9452 28.8615 39.0738 29.1853 39.0738H40.1743C40.4981 39.0738 40.8087 38.9452 41.0377 38.7162C41.2666 38.4872 41.3953 38.1766 41.3953 37.8528V28.0849H46.2792V37.8528C46.2792 38.1766 46.4079 38.4872 46.6369 38.7162C46.8658 38.9452 47.1764 39.0738 47.5002 39.0738H58.4892C58.813 39.0738 59.1236 38.9452 59.3525 38.7162C59.5815 38.4872 59.7102 38.1766 59.7102 37.8528V20.7589C59.7104 20.5985 59.6791 20.4395 59.6179 20.2912C59.5567 20.1429 59.4669 20.0081 59.3536 19.8945L56.0472 16.5905V8.54901C56.0472 8.22518 55.9185 7.91462 55.6896 7.68564C55.4606 7.45666 55.15 7.32802 54.8262 7.32802H52.3842C52.0604 7.32802 51.7498 7.45666 51.5208 7.68564C51.2918 7.91462 51.1632 8.22518 51.1632 8.54901V11.7065L44.7017 5.24256ZM30.4063 36.6318V21.2644L43.8373 7.83351L57.2682 21.2644V36.6318H48.7212V26.8639C48.7212 26.5401 48.5926 26.2295 48.3636 26.0005C48.1346 25.7715 47.8241 25.6429 47.5002 25.6429H40.1743C39.8505 25.6429 39.5399 25.7715 39.3109 26.0005C39.0819 26.2295 38.9533 26.5401 38.9533 26.8639V36.6318H30.4063Z" fill="#E6E6E6" fill-opacity="0.6"/>
<path d="M52.0274 5.24256C51.914 5.12886 51.7792 5.03864 51.6309 4.97709C51.4826 4.91553 51.3235 4.88385 51.1629 4.88385C51.0023 4.88385 50.8433 4.91553 50.695 4.97709C50.5466 5.03864 50.4119 5.12886 50.2985 5.24256L35.6466 19.8945C35.5333 20.0081 35.4434 20.1429 35.3823 20.2912C35.3211 20.4395 35.2898 20.5985 35.29 20.7589V37.8528C35.29 38.1766 35.4187 38.4872 35.6477 38.7162C35.8766 38.9452 36.1872 39.0738 36.511 39.0738H47.5C47.8238 39.0738 48.1344 38.9452 48.3633 38.7162C48.5923 38.4872 48.721 38.1766 48.721 37.8528V28.0849H53.6049V37.8528C53.6049 38.1766 53.7336 38.4872 53.9625 38.7162C54.1915 38.9452 54.5021 39.0738 54.8259 39.0738H65.8148C66.1387 39.0738 66.4492 38.9452 66.6782 38.7162C66.9072 38.4872 67.0358 38.1766 67.0358 37.8528V20.7589C67.0361 20.5985 67.0048 20.4395 66.9436 20.2912C66.8824 20.1429 66.7926 20.0081 66.6793 19.8945L63.3729 16.5905V8.54901C63.3729 8.22518 63.2442 7.91462 63.0152 7.68564C62.7863 7.45666 62.4757 7.32802 62.1519 7.32802H59.7099C59.3861 7.32802 59.0755 7.45666 58.8465 7.68564C58.6175 7.91462 58.4889 8.22518 58.4889 8.54901V11.7065L52.0274 5.24256ZM37.732 36.6318V21.2644L51.1629 7.83351L64.5939 21.2644V36.6318H56.0469V26.8639C56.0469 26.5401 55.9183 26.2295 55.6893 26.0005C55.4603 25.7715 55.1497 25.6429 54.8259 25.6429H47.5C47.1761 25.6429 46.8656 25.7715 46.6366 26.0005C46.4076 26.2295 46.279 26.5401 46.279 26.8639V36.6318H37.732Z" fill="#1DAEFF"/>
</g>
<path d="M4.53906 52.4311C4.61198 52.4311 4.64844 52.4744 4.64844 52.561L4.55957 53.8461C4.55046 53.9373 4.49577 53.9828 4.39551 53.9828L1.22363 54.0307C1.14616 54.0307 1.10514 53.976 1.10059 53.8666L1.11426 52.6567C1.11426 52.5883 1.15072 52.545 1.22363 52.5268L1.95508 52.5473V45.1577L1.0459 45.1645C0.995768 45.1645 0.963867 45.1531 0.950195 45.1303C0.936523 45.1075 0.927409 45.0688 0.922852 45.0141L0.861328 43.811C0.865885 43.7563 0.879557 43.7221 0.902344 43.7084C0.929688 43.6902 0.970703 43.6765 1.02539 43.6674L4.43652 43.7221C4.51855 43.7312 4.55957 43.7836 4.55957 43.8793L4.53223 45.0825C4.53223 45.1827 4.47982 45.2328 4.375 45.2328L3.47949 45.185L3.47266 48.2065L7.17773 48.1586V45.0346L6.24121 45.0073C6.19108 45.0073 6.15918 44.9959 6.14551 44.9731C6.13184 44.9503 6.12272 44.9116 6.11816 44.8569L6.15918 43.7221C6.16829 43.6264 6.22298 43.5786 6.32324 43.5786L9.51562 43.5649C9.56576 43.5694 9.59766 43.5831 9.61133 43.6059C9.625 43.6241 9.63411 43.6629 9.63867 43.7221L9.72754 44.9457C9.72754 45.046 9.67513 45.0961 9.57031 45.0961L8.70215 45.0756L8.68164 52.6703L9.73438 52.6362C9.80729 52.6362 9.84375 52.6795 9.84375 52.7661L9.75488 53.9828C9.74577 54.074 9.69108 54.1196 9.59082 54.1196L6.35059 54.0307C6.27311 54.0307 6.2321 53.976 6.22754 53.8666L6.24121 52.725C6.24121 52.6567 6.27767 52.6134 6.35059 52.5952L7.17773 52.6567V49.5395L3.46582 49.5668L3.45898 52.5063L4.53906 52.4311ZM11.3545 50.2299C11.3545 49.4506 11.4183 48.8035 11.5459 48.2885C11.6781 47.769 11.8717 47.3543 12.127 47.0444C12.6009 46.4838 13.3734 46.2036 14.4443 46.2036C15.1917 46.2036 15.7363 46.2787 16.0781 46.4291C16.4245 46.5795 16.6956 46.7504 16.8916 46.9418C17.0921 47.1332 17.263 47.3793 17.4043 47.6801C17.6868 48.2953 17.8281 49.0701 17.8281 50.0043C17.8281 50.934 17.762 51.6518 17.6299 52.1577C17.5023 52.6635 17.3086 53.0691 17.0488 53.3745C16.5658 53.9304 15.7842 54.2084 14.7041 54.2084C13.5739 54.2084 12.7513 53.935 12.2363 53.3881C11.6484 52.7683 11.3545 51.7156 11.3545 50.2299ZM16.0098 52.3559C16.1465 52.1736 16.249 51.9184 16.3174 51.5903C16.3857 51.2621 16.4199 50.8611 16.4199 50.3871C16.4199 49.9132 16.3949 49.5304 16.3447 49.2387C16.2946 48.947 16.224 48.7055 16.1328 48.5141C16.0462 48.3181 15.9414 48.1655 15.8184 48.0561C15.6953 47.9422 15.5609 47.8578 15.415 47.8032C15.1963 47.7211 14.9069 47.6801 14.5469 47.6801C14.1868 47.6801 13.8997 47.7075 13.6855 47.7621C13.4714 47.8168 13.2936 47.933 13.1523 48.1108C12.8835 48.4571 12.749 49.1544 12.749 50.2026C12.749 51.6928 13.1501 52.5336 13.9521 52.725C14.1982 52.7843 14.4648 52.8139 14.752 52.8139C15.0391 52.8139 15.2852 52.7843 15.4902 52.725C15.6999 52.6612 15.873 52.5382 16.0098 52.3559ZM25.7168 47.2358C26.4733 46.5476 27.2161 46.2036 27.9453 46.2036C29.0163 46.2036 29.6566 46.7162 29.8662 47.7416C29.9346 48.0789 29.9688 48.407 29.9688 48.726C29.9688 49.0405 29.9642 49.3549 29.9551 49.6694C29.9505 49.9838 29.9414 50.3211 29.9277 50.6811L29.8867 51.768C29.873 52.1326 29.8594 52.463 29.8457 52.7592L30.8369 52.6977C30.9326 52.6977 30.9805 52.7524 30.9805 52.8618L30.8438 54.0034C30.8438 54.058 30.8301 54.0922 30.8027 54.1059C30.7799 54.1241 30.7412 54.1355 30.6865 54.1401L28.6426 54.0854C28.5378 54.0854 28.4854 54.0353 28.4854 53.935C28.499 53.4337 28.5059 52.978 28.5059 52.5678L28.5195 51.4877C28.5195 51.1824 28.5195 50.8953 28.5195 50.6264V49.4301C28.5195 48.8377 28.4717 48.4526 28.376 48.2748C28.2848 48.0971 28.1732 47.9763 28.041 47.9125C27.9089 47.8442 27.7174 47.81 27.4668 47.81C27.0293 47.81 26.5394 47.9558 25.9971 48.2475C26.029 48.4708 26.0449 48.7169 26.0449 48.9858C26.0449 49.2501 26.0426 49.5418 26.0381 49.8608C26.0335 50.1752 26.0267 50.5079 26.0176 50.8588C26.013 51.2097 26.0062 51.5606 25.9971 51.9116C25.9925 52.2625 25.9857 52.5769 25.9766 52.8549L26.8721 52.8344C26.9678 52.8344 27.0156 52.8891 27.0156 52.9985L26.9473 53.935C26.9427 53.9897 26.929 54.0261 26.9062 54.0444C26.8835 54.058 26.8447 54.0672 26.79 54.0717L24.2539 54.017C24.1582 54.017 24.1104 53.9669 24.1104 53.8666L24.0762 52.9096C24.0853 52.8139 24.1354 52.7661 24.2266 52.7661L24.6504 52.8002C24.6595 52.1713 24.6641 51.6062 24.6641 51.1049V49.4301C24.6641 48.8468 24.6117 48.4617 24.5068 48.2748C24.4066 48.088 24.2881 47.9604 24.1514 47.892C24.0146 47.8191 23.8346 47.7827 23.6113 47.7827C23.0645 47.7827 22.4834 48.0128 21.8682 48.4731V52.725L22.5859 52.6909C22.6634 52.6909 22.7021 52.7296 22.7021 52.8071L22.7773 53.8666C22.7591 53.9669 22.709 54.017 22.627 54.017L19.8242 53.9487C19.7194 53.9487 19.667 53.894 19.667 53.7846L19.5986 52.7387C19.6169 52.643 19.667 52.5952 19.749 52.5952H20.4121V48.0971H19.3662C19.2751 48.0971 19.2295 48.0424 19.2295 47.933L19.2158 46.6274C19.234 46.5453 19.2887 46.4975 19.3799 46.4838L21.1025 46.5453C21.1846 46.5545 21.237 46.6069 21.2598 46.7026L21.458 47.6118C22.3285 46.7185 23.1784 46.2719 24.0078 46.2719C24.8418 46.2719 25.4115 46.5932 25.7168 47.2358ZM37.29 54.0307C36.7067 54.1765 35.9661 54.2495 35.0684 54.2495C34.1523 54.2495 33.487 53.9669 33.0723 53.4018C32.6393 52.8139 32.4229 51.8819 32.4229 50.6059C32.4229 49.2661 32.6074 48.2657 32.9766 47.6049C33.3958 46.8758 34.0658 46.4314 34.9863 46.2719C35.3053 46.2172 35.6608 46.1899 36.0527 46.1899C36.8958 46.1899 37.5088 46.3972 37.8916 46.812C38.2744 47.2267 38.4658 47.8601 38.4658 48.7123C38.4658 49.2683 38.3678 49.6967 38.1719 49.9975C38.1081 50.0932 38.0215 50.2026 37.9121 50.3256C37.8027 50.4441 37.5999 50.5512 37.3037 50.6469C37.012 50.7381 36.6771 50.8087 36.2988 50.8588C35.7109 50.9317 34.902 50.9682 33.8721 50.9682C33.9313 51.7384 34.1204 52.2625 34.4395 52.5405C34.681 52.7592 35.1003 52.8686 35.6973 52.8686C36.2578 52.8686 36.8161 52.8207 37.3721 52.725L37.3926 52.3696C37.3971 52.3149 37.4085 52.2784 37.4268 52.2602C37.4495 52.242 37.4883 52.226 37.543 52.2123L38.5273 51.9936C38.6276 51.9936 38.6846 52.0369 38.6982 52.1235C38.7119 52.2009 38.7256 52.3536 38.7393 52.5815C38.7529 52.8048 38.7666 52.9985 38.7803 53.1625C38.7939 53.3266 38.8053 53.4838 38.8145 53.6342L38.8418 54.017C38.8464 54.131 38.8486 54.2267 38.8486 54.3041C38.8486 54.4409 38.7484 54.5206 38.5479 54.5434L37.4131 54.6801C37.3128 54.6801 37.2627 54.63 37.2627 54.5297L37.29 54.0307ZM36.6543 49.5532C36.7728 49.4483 36.8434 49.3276 36.8662 49.1909C36.8936 49.0496 36.9072 48.8855 36.9072 48.6987C36.9072 48.5073 36.889 48.3386 36.8525 48.1928C36.8206 48.047 36.7637 47.9217 36.6816 47.8168C36.5039 47.5981 36.2145 47.4887 35.8135 47.4887C35.0387 47.4887 34.5215 47.6847 34.2617 48.0766C34.0156 48.4412 33.8789 49.0701 33.8516 49.9633C35.4421 49.9405 36.3763 49.8038 36.6543 49.5532ZM39.8467 46.5522C39.8467 46.461 39.8991 46.4155 40.0039 46.4155H43.1074C43.1712 46.4155 43.2077 46.4291 43.2168 46.4565C43.2259 46.4793 43.2305 46.5157 43.2305 46.5659L43.1279 47.6596C43.1188 47.7189 43.1051 47.7576 43.0869 47.7758C43.0687 47.794 43.0322 47.8032 42.9775 47.8032L42.2598 47.8237L44.0029 52.7182L45.5205 47.7211L44.6865 47.81C44.6136 47.81 44.5749 47.7713 44.5703 47.6938L44.4951 46.5659C44.5088 46.4747 44.5589 46.4246 44.6455 46.4155L47.5645 46.2787C47.6374 46.2833 47.6738 46.338 47.6738 46.4428V47.6938C47.6556 47.7895 47.6055 47.8373 47.5234 47.8373H46.8467L44.7275 53.9555C44.7002 54.0421 44.6387 54.0899 44.543 54.0991L43.3193 54.1537C43.2327 54.1446 43.1689 54.0899 43.1279 53.9897L40.6191 47.8578L39.9902 47.8715C39.8945 47.8715 39.8467 47.8168 39.8467 47.7075V46.5522ZM53.6416 54.0307C53.0583 54.1765 52.3177 54.2495 51.4199 54.2495C50.5039 54.2495 49.8385 53.9669 49.4238 53.4018C48.9909 52.8139 48.7744 51.8819 48.7744 50.6059C48.7744 49.2661 48.959 48.2657 49.3281 47.6049C49.7474 46.8758 50.4173 46.4314 51.3379 46.2719C51.6569 46.2172 52.0124 46.1899 52.4043 46.1899C53.2474 46.1899 53.8604 46.3972 54.2432 46.812C54.626 47.2267 54.8174 47.8601 54.8174 48.7123C54.8174 49.2683 54.7194 49.6967 54.5234 49.9975C54.4596 50.0932 54.373 50.2026 54.2637 50.3256C54.1543 50.4441 53.9515 50.5512 53.6553 50.6469C53.3636 50.7381 53.0286 50.8087 52.6504 50.8588C52.0625 50.9317 51.2536 50.9682 50.2236 50.9682C50.2829 51.7384 50.472 52.2625 50.791 52.5405C51.0326 52.7592 51.4518 52.8686 52.0488 52.8686C52.6094 52.8686 53.1676 52.8207 53.7236 52.725L53.7441 52.3696C53.7487 52.3149 53.7601 52.2784 53.7783 52.2602C53.8011 52.242 53.8398 52.226 53.8945 52.2123L54.8789 51.9936C54.9792 51.9936 55.0361 52.0369 55.0498 52.1235C55.0635 52.2009 55.0771 52.3536 55.0908 52.5815C55.1045 52.8048 55.1182 52.9985 55.1318 53.1625C55.1455 53.3266 55.1569 53.4838 55.166 53.6342L55.1934 54.017C55.1979 54.131 55.2002 54.2267 55.2002 54.3041C55.2002 54.4409 55.0999 54.5206 54.8994 54.5434L53.7646 54.6801C53.6644 54.6801 53.6143 54.63 53.6143 54.5297L53.6416 54.0307ZM53.0059 49.5532C53.1243 49.4483 53.195 49.3276 53.2178 49.1909C53.2451 49.0496 53.2588 48.8855 53.2588 48.6987C53.2588 48.5073 53.2406 48.3386 53.2041 48.1928C53.1722 48.047 53.1152 47.9217 53.0332 47.8168C52.8555 47.5981 52.5661 47.4887 52.165 47.4887C51.3903 47.4887 50.873 47.6847 50.6133 48.0766C50.3672 48.4412 50.2305 49.0701 50.2031 49.9633C51.7936 49.9405 52.7279 49.8038 53.0059 49.5532ZM56.957 54.1537C56.8841 54.1537 56.8477 54.0991 56.8477 53.9897V52.8071C56.8477 52.7114 56.8978 52.6635 56.998 52.6635H57.7979V48.0356L56.8203 48.1176C56.7474 48.1131 56.7018 48.0584 56.6836 47.9536L56.5332 46.4975C56.5469 46.4109 56.6016 46.3631 56.6973 46.3539L58.7959 46.2104C58.8779 46.2104 58.9189 46.2628 58.9189 46.3676L58.8164 47.4955C59.3314 46.9259 60.0879 46.5476 61.0859 46.3608C61.3867 46.3015 61.6761 46.2719 61.9541 46.2719C62.2321 46.2719 62.3757 46.3448 62.3848 46.4907L62.4668 48.9926C62.4668 49.0746 62.4326 49.1202 62.3643 49.1293L61.0791 49.225C61.0244 49.225 60.9811 49.2159 60.9492 49.1977C60.9173 49.1795 60.9014 49.1316 60.9014 49.0541V47.8442C60.3089 47.8943 59.7871 48.0128 59.3359 48.1996L59.2607 52.7114L60.4502 52.6225C60.5231 52.6225 60.5618 52.6612 60.5664 52.7387L60.6416 53.8666C60.6279 53.9578 60.5778 54.0079 60.4912 54.017L56.957 54.1537ZM68.9951 48.2407C67.7646 47.8214 66.8965 47.6118 66.3906 47.6118C65.8438 47.6118 65.4746 47.7462 65.2832 48.0151C65.2057 48.1199 65.167 48.2498 65.167 48.4047C65.167 48.5597 65.1852 48.6941 65.2217 48.808C65.2581 48.922 65.3242 49.0222 65.4199 49.1088C65.6113 49.2911 65.9805 49.4256 66.5273 49.5121C67.0742 49.5987 67.5505 49.6944 67.9561 49.7993C68.3662 49.8995 68.6943 50.0317 68.9404 50.1957C69.1911 50.3552 69.3688 50.558 69.4736 50.8041C69.583 51.0502 69.6377 51.367 69.6377 51.7543C69.6377 52.1371 69.5807 52.4767 69.4668 52.7729C69.3529 53.0691 69.1911 53.3198 68.9814 53.5248C68.5576 53.9304 67.9697 54.1332 67.2178 54.1332C66.7028 54.1332 66.1104 54.0694 65.4404 53.9418L65.5566 54.5092C65.5566 54.5821 65.5042 54.6231 65.3994 54.6323L64.2236 54.7348C64.0505 54.7348 63.9548 54.6459 63.9365 54.4682L63.7451 52.4379C63.7451 52.3559 63.7998 52.3058 63.9092 52.2875L64.9756 52.0961C65.0531 52.0961 65.1009 52.1485 65.1191 52.2534L65.2012 52.7045C65.862 52.8093 66.4066 52.8618 66.835 52.8618C67.2633 52.8618 67.5824 52.7729 67.792 52.5952C68.0016 52.4129 68.1064 52.1736 68.1064 51.8774C68.1064 51.5994 67.9948 51.4011 67.7715 51.2827C67.5755 51.1733 67.1904 51.0753 66.6162 50.9887C66.0465 50.8976 65.5771 50.7996 65.208 50.6948C64.8389 50.5854 64.5358 50.4418 64.2988 50.2641C63.8477 49.9269 63.6221 49.3549 63.6221 48.5483C63.6221 47.8465 63.834 47.2859 64.2578 46.8666C64.709 46.4246 65.3402 46.2036 66.1514 46.2036C66.6299 46.2036 67.1813 46.3631 67.8057 46.6821L67.6758 46.142C67.6758 46.0327 67.7236 45.9734 67.8193 45.9643L69.1729 45.8549C69.2458 45.8549 69.2822 45.9073 69.2822 46.0121L69.1318 48.0971C69.1273 48.1928 69.0817 48.2407 68.9951 48.2407ZM75.8174 54.0307C75.234 54.1765 74.4935 54.2495 73.5957 54.2495C72.6797 54.2495 72.0143 53.9669 71.5996 53.4018C71.1667 52.8139 70.9502 51.8819 70.9502 50.6059C70.9502 49.2661 71.1348 48.2657 71.5039 47.6049C71.9232 46.8758 72.5931 46.4314 73.5137 46.2719C73.8327 46.2172 74.1882 46.1899 74.5801 46.1899C75.4232 46.1899 76.0361 46.3972 76.4189 46.812C76.8018 47.2267 76.9932 47.8601 76.9932 48.7123C76.9932 49.2683 76.8952 49.6967 76.6992 49.9975C76.6354 50.0932 76.5488 50.2026 76.4395 50.3256C76.3301 50.4441 76.1273 50.5512 75.8311 50.6469C75.5394 50.7381 75.2044 50.8087 74.8262 50.8588C74.2383 50.9317 73.4294 50.9682 72.3994 50.9682C72.4587 51.7384 72.6478 52.2625 72.9668 52.5405C73.2083 52.7592 73.6276 52.8686 74.2246 52.8686C74.7852 52.8686 75.3434 52.8207 75.8994 52.725L75.9199 52.3696C75.9245 52.3149 75.9359 52.2784 75.9541 52.2602C75.9769 52.242 76.0156 52.226 76.0703 52.2123L77.0547 51.9936C77.1549 51.9936 77.2119 52.0369 77.2256 52.1235C77.2393 52.2009 77.2529 52.3536 77.2666 52.5815C77.2803 52.8048 77.2939 52.9985 77.3076 53.1625C77.3213 53.3266 77.3327 53.4838 77.3418 53.6342L77.3691 54.017C77.3737 54.131 77.376 54.2267 77.376 54.3041C77.376 54.4409 77.2757 54.5206 77.0752 54.5434L75.9404 54.6801C75.8402 54.6801 75.79 54.63 75.79 54.5297L75.8174 54.0307ZM75.1816 49.5532C75.3001 49.4483 75.3708 49.3276 75.3936 49.1909C75.4209 49.0496 75.4346 48.8855 75.4346 48.6987C75.4346 48.5073 75.4163 48.3386 75.3799 48.1928C75.348 48.047 75.291 47.9217 75.209 47.8168C75.0312 47.5981 74.7419 47.4887 74.3408 47.4887C73.5661 47.4887 73.0488 47.6847 72.7891 48.0766C72.543 48.4412 72.4062 49.0701 72.3789 49.9633C73.9694 49.9405 74.9036 49.8038 75.1816 49.5532ZM80.9238 52.7661C80.9785 52.8845 81.0173 53.0121 81.04 53.1489C81.0674 53.2856 81.0811 53.4132 81.0811 53.5317C81.0811 53.6502 81.04 53.7595 80.958 53.8598C80.8805 53.9555 80.7757 54.0353 80.6436 54.0991C80.3701 54.2312 80.1058 54.2973 79.8506 54.2973C79.5954 54.2973 79.4199 54.2563 79.3242 54.1743C79.2285 54.0968 79.151 53.9988 79.0918 53.8803C78.9779 53.6524 78.9209 53.4291 78.9209 53.2104C78.9209 52.9871 78.971 52.8253 79.0713 52.725C79.1715 52.6248 79.2946 52.545 79.4404 52.4858C79.6911 52.3901 79.9395 52.3422 80.1855 52.3422C80.4362 52.3422 80.6071 52.3832 80.6982 52.4653C80.7939 52.5427 80.8691 52.643 80.9238 52.7661ZM82.7285 54.1674C82.6647 54.1674 82.6328 54.1127 82.6328 54.0034V52.9711C82.6328 52.8845 82.6693 52.8412 82.7422 52.8412H83.5625L83.6172 48.0629L82.5098 47.9467C82.4277 47.9376 82.3867 47.8875 82.3867 47.7963L82.5371 46.6684C82.5553 46.5864 82.61 46.5385 82.7012 46.5248L84.8955 46.2993C84.9456 46.2993 84.9775 46.3129 84.9912 46.3403C85.0049 46.3631 85.014 46.4018 85.0186 46.4565L85.1074 47.7006L85.0869 52.8412H85.8662C85.9391 52.8412 85.9756 52.8845 85.9756 52.9711L85.8525 53.8666C85.8434 53.9213 85.8275 53.9578 85.8047 53.976C85.7865 53.9897 85.7477 53.9988 85.6885 54.0034L82.7285 54.1674ZM84.8545 44.7612C84.7679 44.8295 84.6517 44.8751 84.5059 44.8979C84.36 44.9207 84.1846 44.9321 83.9795 44.9321C83.779 44.9321 83.624 44.9207 83.5146 44.8979C83.4098 44.8751 83.3255 44.8341 83.2617 44.7748C83.1569 44.6655 83.1045 44.4718 83.1045 44.1938C83.1045 43.9158 83.1182 43.7175 83.1455 43.5991C83.1774 43.476 83.2344 43.3803 83.3164 43.312C83.4577 43.1935 83.6878 43.1342 84.0068 43.1342C84.3304 43.1342 84.5469 43.1433 84.6562 43.1616C84.7656 43.1752 84.8522 43.2117 84.916 43.2709C85.0254 43.3666 85.0801 43.558 85.0801 43.8452C85.0801 44.1323 85.0641 44.3396 85.0322 44.4672C85.0003 44.5948 84.9411 44.6928 84.8545 44.7612ZM87.2197 50.2299C87.2197 49.4506 87.2835 48.8035 87.4111 48.2885C87.5433 47.769 87.737 47.3543 87.9922 47.0444C88.4661 46.4838 89.2386 46.2036 90.3096 46.2036C91.057 46.2036 91.6016 46.2787 91.9434 46.4291C92.2897 46.5795 92.5609 46.7504 92.7568 46.9418C92.9574 47.1332 93.1283 47.3793 93.2695 47.6801C93.5521 48.2953 93.6934 49.0701 93.6934 50.0043C93.6934 50.934 93.6273 51.6518 93.4951 52.1577C93.3675 52.6635 93.1738 53.0691 92.9141 53.3745C92.431 53.9304 91.6494 54.2084 90.5693 54.2084C89.4391 54.2084 88.6165 53.935 88.1016 53.3881C87.5137 52.7683 87.2197 51.7156 87.2197 50.2299ZM91.875 52.3559C92.0117 52.1736 92.1143 51.9184 92.1826 51.5903C92.251 51.2621 92.2852 50.8611 92.2852 50.3871C92.2852 49.9132 92.2601 49.5304 92.21 49.2387C92.1598 48.947 92.0892 48.7055 91.998 48.5141C91.9115 48.3181 91.8066 48.1655 91.6836 48.0561C91.5605 47.9422 91.4261 47.8578 91.2803 47.8032C91.0615 47.7211 90.7721 47.6801 90.4121 47.6801C90.0521 47.6801 89.765 47.7075 89.5508 47.7621C89.3366 47.8168 89.1589 47.933 89.0176 48.1108C88.7487 48.4571 88.6143 49.1544 88.6143 50.2026C88.6143 51.6928 89.0153 52.5336 89.8174 52.725C90.0635 52.7843 90.3301 52.8139 90.6172 52.8139C90.9043 52.8139 91.1504 52.7843 91.3555 52.725C91.5651 52.6612 91.7383 52.5382 91.875 52.3559Z" fill="white"/>
<defs>
<clipPath id="clip0_46_486">
<rect width="39.0717" height="39.0717" fill="white" transform="translate(27.9644)"/>
</clipPath>
</defs>
</svg>
